<svg width="1151" height="181" viewBox="0 0 1151 181" fill="none" xmlns="http://www.w3.org/2000/svg">
<path d="M63.4634 10.5422C76.8028 10.5422 87.919 14.854 96.812 23.4775C105.705 32.1009 110.151 42.9476 110.151 56.0176C110.151 68.9528 105.638 79.7322 96.6099 88.3556C87.7169 96.9791 76.6681 101.291 63.4634 101.291H39.2099V150H15.1585V10.5422H63.4634ZM63.0592 78.6542C69.392 78.6542 74.647 76.4984 78.8239 72.1866C83.1357 67.8749 85.2916 62.4852 85.2916 56.0176C85.2916 49.4153 83.1357 43.9582 78.8239 39.6465C74.647 35.3347 69.392 33.1789 63.0592 33.1789H39.2099V78.6542H63.0592ZM128.607 150V4.47887H151.243V150H128.607ZM249.09 46.9225H271.726V150H249.09V136.256C241.275 147.036 230.293 152.425 216.145 152.425C204.288 152.425 194.721 148.787 187.445 141.511C180.304 134.235 176.733 124.601 176.733 112.609V46.9225H199.37V105.939C199.37 113.35 201.526 119.346 205.838 123.927C210.284 128.374 216.145 130.597 223.421 130.597C231.102 130.597 237.3 128.307 242.016 123.725C246.732 119.144 249.09 113.081 249.09 105.535V46.9225ZM328.864 152.425C318.22 152.425 309.394 149.259 302.387 142.926C295.516 136.593 292.08 128.846 292.08 119.683H315.121C315.121 123.321 316.468 126.42 319.163 128.98C321.858 131.54 325.159 132.82 329.066 132.82C332.704 132.82 335.803 131.81 338.363 129.789C340.924 127.633 342.204 125.005 342.204 121.906C342.204 115.439 336.14 110.588 324.013 107.354C303.667 102.234 293.494 91.6568 293.494 75.6225C293.494 66.0559 296.863 58.5103 303.6 52.9859C310.337 47.3268 318.624 44.4972 328.46 44.4972C338.566 44.4972 346.987 47.5289 353.724 53.5923C360.461 59.6556 363.83 67.0664 363.83 75.8246H340.789C340.789 72.5908 339.576 69.8286 337.151 67.538C334.86 65.2474 331.896 64.1021 328.258 64.1021C325.024 64.1021 322.262 65.1127 319.971 67.1338C317.681 69.0202 316.535 71.3782 316.535 74.2077C316.535 80.6753 322.733 85.4587 335.13 88.5577C355.206 93.6779 365.244 104.12 365.244 119.885C365.244 129.856 361.741 137.806 354.735 143.735C347.863 149.528 339.239 152.425 328.864 152.425ZM435.516 10.5422C448.856 10.5422 459.972 14.854 468.865 23.4775C477.758 32.1009 482.205 42.9476 482.205 56.0176C482.205 68.9528 477.691 79.7322 468.663 88.3556C459.77 96.9791 448.721 101.291 435.516 101.291H411.263V150H387.212V10.5422H435.516ZM435.112 78.6542C441.445 78.6542 446.7 76.4984 450.877 72.1866C455.189 67.8749 457.345 62.4852 457.345 56.0176C457.345 49.4153 455.189 43.9582 450.877 39.6465C446.7 35.3347 441.445 33.1789 435.112 33.1789H411.263V78.6542H435.112ZM511.978 29.5408C507.936 29.5408 504.5 28.1934 501.67 25.4986C498.976 22.669 497.628 19.2331 497.628 15.1908C497.628 11.0138 498.976 7.57793 501.67 4.88309C504.5 2.18826 507.936 0.840842 511.978 0.840842C516.155 0.840842 519.591 2.18826 522.286 4.88309C525.116 7.57793 526.53 11.0138 526.53 15.1908C526.53 19.2331 525.116 22.669 522.286 25.4986C519.591 28.1934 516.155 29.5408 511.978 29.5408ZM500.66 150V46.9225H523.297V150H500.66ZM599.112 152.425C583.348 152.425 570.21 147.305 559.7 137.065C549.191 126.69 543.936 113.822 543.936 98.4613C543.936 83.1007 549.191 70.3002 559.7 60.0599C570.21 49.6847 583.348 44.4972 599.112 44.4972C613.26 44.4972 625.387 48.7415 635.493 57.2303C645.598 65.719 651.594 76.6331 653.481 89.9725H630.036C628.149 82.966 624.377 77.3068 618.717 72.9951C613.193 68.5486 606.658 66.3253 599.112 66.3253C590.085 66.3253 582.472 69.4244 576.274 75.6225C570.21 81.6859 567.179 89.2988 567.179 98.4613C567.179 107.624 570.21 115.304 576.274 121.502C582.472 127.565 590.085 130.597 599.112 130.597C606.658 130.597 613.193 128.441 618.717 124.13C624.377 119.683 628.149 113.957 630.036 106.95H653.481C651.594 120.289 645.598 131.204 635.493 139.692C625.387 148.181 613.26 152.425 599.112 152.425ZM726.036 46.9225V67.538H704.006V150H681.369V67.538H660.552V46.9225H681.369V21.4563L704.006 16.6056V46.9225H726.036ZM814.966 46.9225H837.602V150H814.966V136.256C807.151 147.036 796.169 152.425 782.021 152.425C770.164 152.425 760.597 148.787 753.321 141.511C746.18 134.235 742.609 124.601 742.609 112.609V46.9225H765.246V105.939C765.246 113.35 767.402 119.346 771.714 123.927C776.16 128.374 782.021 130.597 789.297 130.597C796.978 130.597 803.176 128.307 807.892 123.725C812.608 119.144 814.966 113.081 814.966 105.535V46.9225ZM887.06 63.6979C895.279 51.4364 905.856 45.3056 918.792 45.3056V68.5486C908.821 68.5486 901.006 71.3782 895.346 77.0373C889.822 82.6965 887.06 90.3094 887.06 99.8761V150H864.423V46.9225H887.06V63.6979ZM1036.21 98.6634C1036.21 101.897 1036 104.727 1035.6 107.152H950.308C951.925 114.698 955.496 120.761 961.02 125.342C966.68 129.789 973.417 132.012 981.232 132.012C987.699 132.012 993.426 130.665 998.411 127.97C1003.53 125.275 1007.24 121.704 1009.53 117.258H1034.19C1030.41 127.768 1023.74 136.256 1014.18 142.724C1004.61 149.192 993.561 152.425 981.03 152.425C965.4 152.425 952.33 147.305 941.82 137.065C931.31 126.69 926.055 113.822 926.055 98.4613C926.055 83.1007 931.31 70.3002 941.82 60.0599C952.33 49.6847 965.4 44.4972 981.03 44.4972C996.794 44.4972 1009.93 49.6847 1020.44 60.0599C1030.95 70.3002 1036.21 83.1681 1036.21 98.6634ZM1000.43 71.3782C994.908 67.0664 988.44 64.9106 981.03 64.9106C973.619 64.9106 967.151 67.0664 961.627 71.3782C956.102 75.6899 952.397 81.4164 950.511 88.5577H1011.75C1009.86 81.4164 1006.09 75.6899 1000.43 71.3782ZM1086.39 152.425C1075.75 152.425 1066.92 149.259 1059.92 142.926C1053.04 136.593 1049.61 128.846 1049.61 119.683H1072.65C1072.65 123.321 1074 126.42 1076.69 128.98C1079.39 131.54 1082.69 132.82 1086.59 132.82C1090.23 132.82 1093.33 131.81 1095.89 129.789C1098.45 127.633 1099.73 125.005 1099.73 121.906C1099.73 115.439 1093.67 110.588 1081.54 107.354C1061.2 102.234 1051.02 91.6568 1051.02 75.6225C1051.02 66.0559 1054.39 58.5103 1061.13 52.9859C1067.86 47.3268 1076.15 44.4972 1085.99 44.4972C1096.09 44.4972 1104.51 47.5289 1111.25 53.5923C1117.99 59.6556 1121.36 67.0664 1121.36 75.8246H1098.32C1098.32 72.5908 1097.1 69.8286 1094.68 67.538C1092.39 65.2474 1089.42 64.1021 1085.79 64.1021C1082.55 64.1021 1079.79 65.1127 1077.5 67.1338C1075.21 69.0202 1074.06 71.3782 1074.06 74.2077C1074.06 80.6753 1080.26 85.4587 1092.66 88.5577C1112.73 93.6779 1122.77 104.12 1122.77 119.885C1122.77 129.856 1119.27 137.806 1112.26 143.735C1105.39 149.528 1096.77 152.425 1086.39 152.425Z" fill="white"/>
<path d="M96.812 23.4775L97.5155 22.752L97.5155 22.752L96.812 23.4775ZM96.6099 88.3556L95.9118 87.6249L95.9064 87.6302L96.6099 88.3556ZM39.2099 101.291V100.28H38.1993V101.291H39.2099ZM39.2099 150V151.011H40.2204V150H39.2099ZM15.1585 150H14.1479V151.011H15.1585V150ZM15.1585 10.5422V9.53168H14.1479V10.5422H15.1585ZM78.8239 72.1866L78.1094 71.472L78.1037 71.4777L78.0981 71.4835L78.8239 72.1866ZM78.8239 39.6465L78.0981 40.3496L78.1037 40.3554L78.1094 40.3611L78.8239 39.6465ZM39.2099 33.1789V32.1683H38.1993V33.1789H39.2099ZM39.2099 78.6542H38.1993V79.6648H39.2099V78.6542ZM63.4634 11.5528C76.5624 11.5528 87.4194 15.7772 96.1085 24.2029L97.5155 22.752C88.4186 13.9308 77.0433 9.53168 63.4634 9.53168V11.5528ZM96.1085 24.2029C104.793 32.6247 109.141 43.2042 109.141 56.0176H111.162C111.162 42.6911 106.616 31.5772 97.5155 22.752L96.1085 24.2029ZM109.141 56.0176C109.141 68.688 104.732 79.1997 95.9118 87.6249L97.3079 89.0864C106.543 80.2646 111.162 69.2176 111.162 56.0176H109.141ZM95.9064 87.6302C87.2152 96.0579 76.4246 100.28 63.4634 100.28V102.301C76.9116 102.301 88.2186 97.9003 97.3134 89.0811L95.9064 87.6302ZM63.4634 100.28H39.2099V102.301H63.4634V100.28ZM38.1993 101.291V150H40.2204V101.291H38.1993ZM39.2099 148.989H15.1585V151.011H39.2099V148.989ZM16.169 150V10.5422H14.1479V150H16.169ZM15.1585 11.5528H63.4634V9.53168H15.1585V11.5528ZM63.0592 79.6648C69.6488 79.6648 75.1711 77.4097 79.5498 72.8898L78.0981 71.4835C74.1228 75.587 69.1352 77.6437 63.0592 77.6437V79.6648ZM79.5385 72.9012C84.0522 68.3876 86.3021 62.7352 86.3021 56.0176H84.281C84.281 62.2352 82.2192 67.3622 78.1094 71.472L79.5385 72.9012ZM86.3021 56.0176C86.3021 49.1717 84.0564 43.4498 79.5385 38.9319L78.1094 40.3611C82.215 44.4666 84.281 49.6588 84.281 56.0176H86.3021ZM79.5498 38.9433C75.1711 34.4234 69.6488 32.1683 63.0592 32.1683V34.1894C69.1352 34.1894 74.1228 36.2461 78.0981 40.3496L79.5498 38.9433ZM63.0592 32.1683H39.2099V34.1894H63.0592V32.1683ZM38.1993 33.1789V78.6542H40.2204V33.1789H38.1993ZM39.2099 79.6648H63.0592V77.6437H39.2099V79.6648ZM128.607 150H127.596V151.011H128.607V150ZM128.607 4.47887V3.46831H127.596V4.47887H128.607ZM151.243 4.47887H152.254V3.46831H151.243V4.47887ZM151.243 150V151.011H152.254V150H151.243ZM129.617 150V4.47887H127.596V150H129.617ZM128.607 5.48943H151.243V3.46831H128.607V5.48943ZM150.233 4.47887V150H152.254V4.47887H150.233ZM151.243 148.989H128.607V151.011H151.243V148.989ZM249.09 46.9225V45.912H248.079V46.9225H249.09ZM271.726 46.9225H272.737V45.912H271.726V46.9225ZM271.726 150V151.011H272.737V150H271.726ZM249.09 150H248.079V151.011H249.09V150ZM249.09 136.256H250.1V133.141L248.271 135.663L249.09 136.256ZM187.445 141.511L186.724 142.219L186.731 142.226L187.445 141.511ZM176.733 46.9225V45.912H175.723V46.9225H176.733ZM199.37 46.9225H200.381V45.912H199.37V46.9225ZM205.838 123.927L205.102 124.62L205.112 124.631L205.123 124.642L205.838 123.927ZM242.016 123.725L242.72 124.45L242.72 124.45L242.016 123.725ZM249.09 47.9331H271.726V45.912H249.09V47.9331ZM270.716 46.9225V150H272.737V46.9225H270.716ZM271.726 148.989H249.09V151.011H271.726V148.989ZM250.1 150V136.256H248.079V150H250.1ZM248.271 135.663C240.66 146.162 229.993 151.415 216.145 151.415V153.436C230.593 153.436 241.889 147.91 249.908 136.85L248.271 135.663ZM216.145 151.415C204.512 151.415 195.217 147.854 188.16 140.797L186.731 142.226C194.225 149.721 204.064 153.436 216.145 153.436V151.415ZM188.167 140.803C181.243 133.749 177.744 124.387 177.744 112.609H175.723C175.723 124.816 179.365 134.721 186.724 142.219L188.167 140.803ZM177.744 112.609V46.9225H175.723V112.609H177.744ZM176.733 47.9331H199.37V45.912H176.733V47.9331ZM198.359 46.9225V105.939H200.381V46.9225H198.359ZM198.359 105.939C198.359 113.559 200.583 119.819 205.102 124.62L206.573 123.235C202.469 118.874 200.381 113.142 200.381 105.939H198.359ZM205.123 124.642C209.789 129.308 215.923 131.608 223.421 131.608V129.587C216.368 129.587 210.779 127.44 206.552 123.213L205.123 124.642ZM223.421 131.608C231.317 131.608 237.784 129.245 242.72 124.45L241.312 123C236.816 127.368 230.886 129.587 223.421 129.587V131.608ZM242.72 124.45C247.661 119.65 250.1 113.31 250.1 105.535H248.079C248.079 112.852 245.802 118.638 241.312 123L242.72 124.45ZM250.1 105.535V46.9225H248.079V105.535H250.1ZM302.387 142.926L301.703 143.669L301.71 143.676L302.387 142.926ZM292.08 119.683V118.673H291.069V119.683H292.08ZM315.121 119.683H316.131V118.673H315.121V119.683ZM319.163 128.98L319.859 128.248L319.859 128.248L319.163 128.98ZM338.363 129.789L338.99 130.582L339.002 130.572L339.014 130.562L338.363 129.789ZM324.013 107.354L324.274 106.378L324.267 106.376L324.26 106.374L324.013 107.354ZM303.6 52.9859L304.241 53.7674L304.25 53.7597L303.6 52.9859ZM353.724 53.5923L354.4 52.8411L354.4 52.8411L353.724 53.5923ZM363.83 75.8246V76.8352H364.84V75.8246H363.83ZM340.789 75.8246H339.778V76.8352H340.789V75.8246ZM337.151 67.538L336.436 68.2526L336.446 68.2628L336.457 68.2727L337.151 67.538ZM319.971 67.1338L320.614 67.9139L320.627 67.9029L320.64 67.8916L319.971 67.1338ZM335.13 88.5577L335.379 87.5785L335.375 87.5774L335.13 88.5577ZM354.735 143.735L355.386 144.507L355.387 144.506L354.735 143.735ZM328.864 151.415C318.436 151.415 309.862 148.32 303.065 142.176L301.71 143.676C308.926 150.198 318.003 153.436 328.864 153.436V151.415ZM303.072 142.183C296.403 136.037 293.09 128.557 293.09 119.683H291.069C291.069 129.134 294.628 137.149 301.703 143.669L303.072 142.183ZM292.08 120.694H315.121V118.673H292.08V120.694ZM314.11 119.683C314.11 123.605 315.576 126.967 318.467 129.713L319.859 128.248C317.36 125.874 316.131 123.037 316.131 119.683H314.11ZM318.467 129.713C321.36 132.461 324.914 133.831 329.066 133.831V131.81C325.403 131.81 322.355 130.619 319.859 128.248L318.467 129.713ZM329.066 133.831C332.904 133.831 336.231 132.76 338.99 130.582L337.737 128.996C335.376 130.86 332.505 131.81 329.066 131.81V133.831ZM339.014 130.562C341.782 128.231 343.214 125.33 343.214 121.906H341.193C341.193 124.681 340.065 127.034 337.713 129.016L339.014 130.562ZM343.214 121.906C343.214 118.303 341.505 115.203 338.287 112.628C335.099 110.078 330.399 108.011 324.274 106.378L323.753 108.331C329.755 109.931 334.149 111.906 337.025 114.207C339.87 116.483 341.193 119.042 341.193 121.906H343.214ZM324.26 106.374C314.196 103.841 306.763 99.9862 301.853 94.8806C296.965 89.7985 294.505 83.4049 294.505 75.6225H292.484C292.484 83.8744 295.111 90.7866 300.396 96.2817C305.658 101.753 313.485 105.747 323.767 108.334L324.26 106.374ZM294.505 75.6225C294.505 66.3249 297.763 59.0794 304.241 53.7674L302.959 52.2045C295.963 57.9412 292.484 65.7869 292.484 75.6225H294.505ZM304.25 53.7597C310.783 48.2717 318.832 45.5077 328.46 45.5077V43.4866C318.416 43.4866 309.891 46.3819 302.95 52.2121L304.25 53.7597ZM328.46 45.5077C338.347 45.5077 346.518 48.4666 353.048 54.3434L354.4 52.8411C347.456 46.5911 338.784 43.4866 328.46 43.4866V45.5077ZM353.048 54.3434C359.581 60.2227 362.819 67.3641 362.819 75.8246H364.84C364.84 66.7688 361.342 59.0885 354.4 52.8411L353.048 54.3434ZM363.83 74.8141H340.789V76.8352H363.83V74.8141ZM341.799 75.8246C341.799 72.303 340.465 69.278 337.845 66.8033L336.457 68.2727C338.687 70.3792 339.778 72.8786 339.778 75.8246H341.799ZM337.865 66.8234C335.361 64.3193 332.128 63.0915 328.258 63.0915V65.1127C331.664 65.1127 334.359 66.1755 336.436 68.2526L337.865 66.8234ZM328.258 63.0915C324.794 63.0915 321.789 64.1819 319.303 66.376L320.64 67.8916C322.734 66.0435 325.255 65.1127 328.258 65.1127V63.0915ZM319.329 66.3537C316.818 68.4213 315.525 71.0597 315.525 74.2077H317.546C317.546 71.6967 318.543 69.6191 320.614 67.9139L319.329 66.3537ZM315.525 74.2077C315.525 77.8216 317.278 80.9079 320.566 83.446C323.824 85.9599 328.626 87.9736 334.885 89.5381L335.375 87.5774C329.237 86.0429 324.742 84.1153 321.801 81.8459C318.892 79.6007 317.546 77.0615 317.546 74.2077H315.525ZM334.88 89.537C344.81 92.0695 352.143 95.891 356.987 100.93C361.809 105.946 364.234 112.239 364.234 119.885H366.255C366.255 111.767 363.661 104.956 358.444 99.5294C353.25 94.126 345.526 90.1662 335.379 87.5785L334.88 89.537ZM364.234 119.885C364.234 129.588 360.84 137.244 354.082 142.963L355.387 144.506C362.642 138.367 366.255 130.124 366.255 119.885H364.234ZM354.083 142.962C347.421 148.579 339.04 151.415 328.864 151.415V153.436C339.439 153.436 348.304 150.478 355.386 144.507L354.083 142.962ZM468.865 23.4775L469.569 22.752L469.569 22.752L468.865 23.4775ZM468.663 88.3556L467.965 87.6249L467.959 87.6302L468.663 88.3556ZM411.263 101.291V100.28H410.252V101.291H411.263ZM411.263 150V151.011H412.274V150H411.263ZM387.212 150H386.201V151.011H387.212V150ZM387.212 10.5422V9.53168H386.201V10.5422H387.212ZM450.877 72.1866L450.162 71.472L450.157 71.4777L450.151 71.4835L450.877 72.1866ZM450.877 39.6465L450.151 40.3496L450.157 40.3554L450.162 40.3611L450.877 39.6465ZM411.263 33.1789V32.1683H410.252V33.1789H411.263ZM411.263 78.6542H410.252V79.6648H411.263V78.6542ZM435.516 11.5528C448.615 11.5528 459.473 15.7772 468.162 24.2029L469.569 22.752C460.472 13.9308 449.096 9.53168 435.516 9.53168V11.5528ZM468.162 24.2029C476.846 32.6247 481.194 43.2042 481.194 56.0176H483.215C483.215 42.6911 478.67 31.5772 469.569 22.752L468.162 24.2029ZM481.194 56.0176C481.194 68.688 476.785 79.1997 467.965 87.6249L469.361 89.0864C478.596 80.2646 483.215 69.2176 483.215 56.0176H481.194ZM467.959 87.6302C459.268 96.0579 448.478 100.28 435.516 100.28V102.301C448.965 102.301 460.272 97.9003 469.366 89.0811L467.959 87.6302ZM435.516 100.28H411.263V102.301H435.516V100.28ZM410.252 101.291V150H412.274V101.291H410.252ZM411.263 148.989H387.212V151.011H411.263V148.989ZM388.222 150V10.5422H386.201V150H388.222ZM387.212 11.5528H435.516V9.53168H387.212V11.5528ZM435.112 79.6648C441.702 79.6648 447.224 77.4097 451.603 72.8898L450.151 71.4835C446.176 75.587 441.188 77.6437 435.112 77.6437V79.6648ZM451.592 72.9012C456.105 68.3876 458.355 62.7352 458.355 56.0176H456.334C456.334 62.2352 454.272 67.3622 450.162 71.472L451.592 72.9012ZM458.355 56.0176C458.355 49.1717 456.11 43.4498 451.592 38.9319L450.162 40.3611C454.268 44.4666 456.334 49.6588 456.334 56.0176H458.355ZM451.603 38.9433C447.224 34.4234 441.702 32.1683 435.112 32.1683V34.1894C441.188 34.1894 446.176 36.2461 450.151 40.3496L451.603 38.9433ZM435.112 32.1683H411.263V34.1894H435.112V32.1683ZM410.252 33.1789V78.6542H412.274V33.1789H410.252ZM411.263 79.6648H435.112V77.6437H411.263V79.6648ZM501.67 25.4986L500.939 26.1955L500.956 26.2134L500.974 26.2304L501.67 25.4986ZM501.67 4.88309L500.974 4.1513L500.965 4.1598L500.956 4.16852L501.67 4.88309ZM522.286 4.88309L521.571 5.59767L521.58 5.60638L521.589 5.61488L522.286 4.88309ZM522.286 25.4986L521.571 24.784L521.571 24.784L522.286 25.4986ZM500.66 150H499.649V151.011H500.66V150ZM500.66 46.9225V45.912H499.649V46.9225H500.66ZM523.297 46.9225H524.307V45.912H523.297V46.9225ZM523.297 150V151.011H524.307V150H523.297ZM511.978 28.5303C508.186 28.5303 505.002 27.276 502.367 24.7668L500.974 26.2304C503.998 29.1109 507.686 30.5514 511.978 30.5514V28.5303ZM502.402 24.8016C499.893 22.167 498.639 18.9835 498.639 15.1908H496.618C496.618 19.4827 498.058 23.171 500.939 26.1955L502.402 24.8016ZM498.639 15.1908C498.639 11.2536 499.899 8.08387 502.385 5.59767L500.956 4.16852C498.052 7.07199 496.618 10.7741 496.618 15.1908H498.639ZM502.367 5.61488C505.002 3.10573 508.186 1.85141 511.978 1.85141V-0.169722C507.686 -0.169722 503.998 1.27079 500.974 4.1513L502.367 5.61488ZM511.978 1.85141C515.916 1.85141 519.085 3.11147 521.571 5.59767L523.001 4.16851C520.097 1.26505 516.395 -0.169722 511.978 -0.169722V1.85141ZM521.589 5.61488C524.203 8.10478 525.52 11.2691 525.52 15.1908H527.541C527.541 10.7586 526.028 7.05108 522.983 4.1513L521.589 5.61488ZM525.52 15.1908C525.52 18.9681 524.209 22.1461 521.571 24.784L523.001 26.2132C526.022 23.1919 527.541 19.4981 527.541 15.1908H525.52ZM521.571 24.784C519.085 27.2702 515.916 28.5303 511.978 28.5303V30.5514C516.395 30.5514 520.097 29.1166 523.001 26.2132L521.571 24.784ZM501.67 150V46.9225H499.649V150H501.67ZM500.66 47.9331H523.297V45.912H500.66V47.9331ZM522.286 46.9225V150H524.307V46.9225H522.286ZM523.297 148.989H500.66V151.011H523.297V148.989ZM559.7 137.065L558.991 137.784L558.995 137.789L559.7 137.065ZM559.7 60.0599L560.406 60.7837L560.41 60.779L559.7 60.0599ZM635.493 57.2303L636.143 56.4565L636.143 56.4565L635.493 57.2303ZM653.481 89.9725V90.9831H654.644L654.481 89.831L653.481 89.9725ZM630.036 89.9725L629.06 90.2353L629.261 90.9831H630.036V89.9725ZM618.717 72.9951L618.084 73.7823L618.094 73.7907L618.105 73.7989L618.717 72.9951ZM576.274 75.6225L575.559 74.908L575.559 74.908L576.274 75.6225ZM576.274 121.502L575.551 122.209L575.559 122.217L575.567 122.224L576.274 121.502ZM618.717 124.13L619.339 124.926L619.342 124.924L618.717 124.13ZM630.036 106.95V105.939H629.261L629.06 106.687L630.036 106.95ZM653.481 106.95L654.481 107.091L654.644 105.939H653.481V106.95ZM635.493 139.692L636.143 140.466L636.143 140.466L635.493 139.692ZM599.112 151.415C583.59 151.415 570.712 146.383 560.406 136.341L558.995 137.789C569.709 148.227 583.106 153.436 599.112 153.436V151.415ZM560.41 136.346C550.101 126.169 544.946 113.564 544.946 98.4613H542.925C542.925 114.08 548.28 127.211 558.991 137.784L560.41 136.346ZM544.946 98.4613C544.946 83.359 550.101 70.8241 560.406 60.7837L558.995 59.3361C548.28 69.7764 542.925 82.8424 542.925 98.4613H544.946ZM560.41 60.779C570.718 50.6041 583.594 45.5077 599.112 45.5077V43.4866C583.102 43.4866 569.703 48.7654 558.991 59.3407L560.41 60.779ZM599.112 45.5077C613.041 45.5077 624.933 49.6797 634.843 58.0041L636.143 56.4565C625.841 47.8034 613.48 43.4866 599.112 43.4866V45.5077ZM634.843 58.0041C644.753 66.3289 650.628 77.0157 652.48 90.114L654.481 89.831C652.561 76.2505 646.444 65.1092 636.143 56.4565L634.843 58.0041ZM653.481 88.962H630.036V90.9831H653.481V88.962ZM631.012 89.7098C629.068 82.4923 625.17 76.6411 619.33 72.1912L618.105 73.7989C623.583 77.9725 627.23 83.4396 629.06 90.2353L631.012 89.7098ZM619.351 72.2078C613.635 67.6072 606.873 65.3148 599.112 65.3148V67.3359C606.443 67.3359 612.751 69.49 618.084 73.7823L619.351 72.2078ZM599.112 65.3148C589.826 65.3148 581.953 68.5141 575.559 74.908L576.988 76.3371C582.991 70.3348 590.344 67.3359 599.112 67.3359V65.3148ZM575.559 74.908C569.292 81.1748 566.168 89.0511 566.168 98.4613H568.189C568.189 89.5465 571.128 82.1971 576.988 76.3371L575.559 74.908ZM566.168 98.4613C566.168 107.871 569.292 115.81 575.551 122.209L576.996 120.795C571.129 114.798 568.189 107.376 568.189 98.4613H566.168ZM575.567 122.224C581.962 128.481 589.833 131.608 599.112 131.608V129.587C590.337 129.587 582.981 126.65 576.98 120.78L575.567 122.224ZM599.112 131.608C606.865 131.608 613.623 129.388 619.339 124.926L618.096 123.333C612.763 127.495 606.451 129.587 599.112 129.587V131.608ZM619.342 124.924C625.174 120.342 629.069 114.428 631.012 107.213L629.06 106.687C627.23 113.485 623.579 119.024 618.093 123.335L619.342 124.924ZM630.036 107.961H653.481V105.939H630.036V107.961ZM652.48 106.808C650.628 119.907 644.753 130.594 634.843 138.918L636.143 140.466C646.444 131.813 652.561 120.672 654.481 107.091L652.48 106.808ZM634.843 138.918C624.933 147.243 613.041 151.415 599.112 151.415V153.436C613.48 153.436 625.841 149.119 636.143 140.466L634.843 138.918ZM726.036 46.9225H727.047V45.912H726.036V46.9225ZM726.036 67.538V68.5486H727.047V67.538H726.036ZM704.006 67.538V66.5275H702.995V67.538H704.006ZM704.006 150V151.011H705.016V150H704.006ZM681.369 150H680.359V151.011H681.369V150ZM681.369 67.538H682.38V66.5275H681.369V67.538ZM660.552 67.538H659.541V68.5486H660.552V67.538ZM660.552 46.9225V45.912H659.541V46.9225H660.552ZM681.369 46.9225V47.9331H682.38V46.9225H681.369ZM681.369 21.4563L681.157 20.4682L680.359 20.6394V21.4563H681.369ZM704.006 16.6056H705.016V15.3556L703.794 15.6175L704.006 16.6056ZM704.006 46.9225H702.995V47.9331H704.006V46.9225ZM725.025 46.9225V67.538H727.047V46.9225H725.025ZM726.036 66.5275H704.006V68.5486H726.036V66.5275ZM702.995 67.538V150H705.016V67.538H702.995ZM704.006 148.989H681.369V151.011H704.006V148.989ZM682.38 150V67.538H680.359V150H682.38ZM681.369 66.5275H660.552V68.5486H681.369V66.5275ZM661.562 67.538V46.9225H659.541V67.538H661.562ZM660.552 47.9331H681.369V45.912H660.552V47.9331ZM682.38 46.9225V21.4563H680.359V46.9225H682.38ZM681.581 22.4445L704.218 17.5938L703.794 15.6175L681.157 20.4682L681.581 22.4445ZM702.995 16.6056V46.9225H705.016V16.6056H702.995ZM704.006 47.9331H726.036V45.912H704.006V47.9331ZM814.966 46.9225V45.912H813.955V46.9225H814.966ZM837.602 46.9225H838.613V45.912H837.602V46.9225ZM837.602 150V151.011H838.613V150H837.602ZM814.966 150H813.955V151.011H814.966V150ZM814.966 136.256H815.976V133.141L814.148 135.663L814.966 136.256ZM753.321 141.511L752.6 142.219L752.607 142.226L753.321 141.511ZM742.609 46.9225V45.912H741.599V46.9225H742.609ZM765.246 46.9225H766.257V45.912H765.246V46.9225ZM771.714 123.927L770.978 124.62L770.988 124.631L770.999 124.642L771.714 123.927ZM807.892 123.725L808.596 124.45L808.596 124.45L807.892 123.725ZM814.966 47.9331H837.602V45.912H814.966V47.9331ZM836.592 46.9225V150H838.613V46.9225H836.592ZM837.602 148.989H814.966V151.011H837.602V148.989ZM815.976 150V136.256H813.955V150H815.976ZM814.148 135.663C806.536 146.162 795.869 151.415 782.021 151.415V153.436C796.469 153.436 807.765 147.91 815.784 136.85L814.148 135.663ZM782.021 151.415C770.388 151.415 761.093 147.854 754.036 140.797L752.607 142.226C760.101 149.721 769.94 153.436 782.021 153.436V151.415ZM754.043 140.803C747.119 133.749 743.62 124.387 743.62 112.609H741.599C741.599 124.816 745.241 134.721 752.6 142.219L754.043 140.803ZM743.62 112.609V46.9225H741.599V112.609H743.62ZM742.609 47.9331H765.246V45.912H742.609V47.9331ZM764.235 46.9225V105.939H766.257V46.9225H764.235ZM764.235 105.939C764.235 113.559 766.459 119.819 770.978 124.62L772.449 123.235C768.345 118.874 766.257 113.142 766.257 105.939H764.235ZM770.999 124.642C775.665 129.308 781.799 131.608 789.297 131.608V129.587C782.244 129.587 776.655 127.44 772.428 123.213L770.999 124.642ZM789.297 131.608C797.193 131.608 803.66 129.245 808.596 124.45L807.188 123C802.692 127.368 796.762 129.587 789.297 129.587V131.608ZM808.596 124.45C813.537 119.65 815.976 113.31 815.976 105.535H813.955C813.955 112.852 811.678 118.638 807.188 123L808.596 124.45ZM815.976 105.535V46.9225H813.955V105.535H815.976ZM887.06 63.6979H886.049V67.0204L887.899 64.2606L887.06 63.6979ZM918.792 45.3056H919.802V44.2951H918.792V45.3056ZM918.792 68.5486V69.5592H919.802V68.5486H918.792ZM895.346 77.0373L894.632 76.3227L894.623 76.3314L895.346 77.0373ZM887.06 150V151.011H888.07V150H887.06ZM864.423 150H863.413V151.011H864.423V150ZM864.423 46.9225V45.912H863.413V46.9225H864.423ZM887.06 46.9225H888.07V45.912H887.06V46.9225ZM887.899 64.2606C895.962 52.2329 906.245 46.3162 918.792 46.3162V44.2951C905.467 44.2951 894.596 50.6399 886.22 63.1352L887.899 64.2606ZM917.781 45.3056V68.5486H919.802V45.3056H917.781ZM918.792 67.538C908.622 67.538 900.525 70.4299 894.632 76.3227L896.061 77.7519C901.487 72.3264 909.019 69.5592 918.792 69.5592V67.538ZM894.623 76.3314C888.877 82.2176 886.049 90.1044 886.049 99.8761H888.07C888.07 90.5144 890.767 83.1753 896.07 77.7432L894.623 76.3314ZM886.049 99.8761V150H888.07V99.8761H886.049ZM887.06 148.989H864.423V151.011H887.06V148.989ZM865.434 150V46.9225H863.413V150H865.434ZM864.423 47.9331H887.06V45.912H864.423V47.9331ZM886.049 46.9225V63.6979H888.07V46.9225H886.049ZM1035.6 107.152V108.163H1036.46L1036.6 107.318L1035.6 107.152ZM950.308 107.152V106.142H949.058L949.32 107.364L950.308 107.152ZM961.02 125.342L960.375 126.12L960.386 126.129L960.396 126.137L961.02 125.342ZM998.411 127.97L997.941 127.075L997.931 127.081L998.411 127.97ZM1009.53 117.258V116.247H1008.91L1008.63 116.795L1009.53 117.258ZM1034.19 117.258L1035.14 117.599L1035.62 116.247H1034.19V117.258ZM1014.18 142.724L1013.61 141.887L1013.61 141.887L1014.18 142.724ZM941.82 137.065L941.11 137.784L941.115 137.789L941.82 137.065ZM941.82 60.0599L942.525 60.7837L942.53 60.779L941.82 60.0599ZM1020.44 60.0599L1019.73 60.779L1019.74 60.7837L1020.44 60.0599ZM1000.43 71.3782L999.811 72.1749L999.82 72.182L1000.43 71.3782ZM961.627 71.3782L962.249 72.1748L962.249 72.1748L961.627 71.3782ZM950.511 88.5577L949.534 88.2997L949.198 89.5683H950.511V88.5577ZM1011.75 88.5577V89.5683H1013.06L1012.73 88.2997L1011.75 88.5577ZM1035.2 98.6634C1035.2 101.858 1035 104.63 1034.6 106.986L1036.6 107.318C1037.01 104.824 1037.22 101.937 1037.22 98.6634H1035.2ZM1035.6 106.142H950.308V108.163H1035.6V106.142ZM949.32 107.364C950.981 115.113 954.663 121.383 960.375 126.12L961.666 124.564C956.329 120.139 952.87 114.282 951.297 106.94L949.32 107.364ZM960.396 126.137C966.249 130.736 973.211 133.023 981.232 133.023V131.001C973.622 131.001 967.11 128.842 961.645 124.548L960.396 126.137ZM981.232 133.023C987.843 133.023 993.739 131.644 998.892 128.859L997.931 127.081C993.113 129.685 987.555 131.001 981.232 131.001V133.023ZM998.882 128.864C1004.16 126.088 1008.03 122.379 1010.43 117.721L1008.63 116.795C1006.45 121.029 1002.91 124.462 997.941 127.075L998.882 128.864ZM1009.53 118.268H1034.19V116.247H1009.53V118.268ZM1033.23 116.916C1029.54 127.217 1023.01 135.535 1013.61 141.887L1014.74 143.561C1024.48 136.978 1031.29 128.318 1035.14 117.599L1033.23 116.916ZM1013.61 141.887C1004.22 148.232 993.377 151.415 981.03 151.415V153.436C993.744 153.436 1004.99 150.151 1014.74 143.561L1013.61 141.887ZM981.03 151.415C965.644 151.415 952.833 146.385 942.525 136.341L941.115 137.789C951.826 148.226 965.155 153.436 981.03 153.436V151.415ZM942.53 136.346C932.221 126.169 927.066 113.564 927.066 98.4613H925.044C925.044 114.08 930.399 127.211 941.11 137.784L942.53 136.346ZM927.066 98.4613C927.066 83.359 932.22 70.8241 942.525 60.7837L941.115 59.3361C930.399 69.7764 925.044 82.8424 925.044 98.4613H927.066ZM942.53 60.779C952.839 50.6024 965.648 45.5077 981.03 45.5077V43.4866C965.151 43.4866 951.821 48.7671 941.11 59.3407L942.53 60.779ZM981.03 45.5077C996.548 45.5077 1009.42 50.6041 1019.73 60.779L1021.15 59.3407C1010.44 48.7654 997.04 43.4866 981.03 43.4866V45.5077ZM1019.74 60.7837C1030.04 70.8223 1035.2 83.4236 1035.2 98.6634H1037.22C1037.22 82.9125 1031.86 69.7782 1021.15 59.3361L1019.74 60.7837ZM1001.05 70.5815C995.342 66.1228 988.652 63.9 981.03 63.9V65.9211C988.229 65.9211 994.475 68.01 999.811 72.1748L1001.05 70.5815ZM981.03 63.9C973.407 63.9 966.718 66.1228 961.005 70.5815L962.249 72.1748C967.585 68.01 973.83 65.9211 981.03 65.9211V63.9ZM961.005 70.5815C955.297 75.0368 951.473 80.9572 949.534 88.2997L951.488 88.8158C953.321 81.8757 956.908 76.343 962.249 72.1748L961.005 70.5815ZM950.511 89.5683H1011.75V87.5472H950.511V89.5683ZM1012.73 88.2997C1010.79 80.9499 1006.89 75.0279 1001.04 70.5743L999.82 72.182C1005.29 76.352 1008.94 81.883 1010.77 88.8158L1012.73 88.2997ZM1059.92 142.926L1059.23 143.669L1059.24 143.676L1059.92 142.926ZM1049.61 119.683V118.673H1048.6V119.683H1049.61ZM1072.65 119.683H1073.66V118.673H1072.65V119.683ZM1076.69 128.98L1077.39 128.248L1077.39 128.248L1076.69 128.98ZM1095.89 129.789L1096.52 130.582L1096.53 130.572L1096.54 130.562L1095.89 129.789ZM1081.54 107.354L1081.8 106.378L1081.79 106.376L1081.79 106.374L1081.54 107.354ZM1061.13 52.9859L1061.77 53.7674L1061.78 53.7597L1061.13 52.9859ZM1111.25 53.5923L1111.93 52.8411L1111.93 52.8411L1111.25 53.5923ZM1121.36 75.8246V76.8352H1122.37V75.8246H1121.36ZM1098.32 75.8246H1097.31V76.8352H1098.32V75.8246ZM1094.68 67.538L1093.96 68.2526L1093.97 68.2628L1093.98 68.2727L1094.68 67.538ZM1077.5 67.1338L1078.14 67.9139L1078.15 67.9029L1078.17 67.8916L1077.5 67.1338ZM1092.66 88.5577L1092.91 87.5785L1092.9 87.5774L1092.66 88.5577ZM1112.26 143.735L1112.91 144.507L1112.92 144.506L1112.26 143.735ZM1086.39 151.415C1075.96 151.415 1067.39 148.32 1060.59 142.176L1059.24 143.676C1066.45 150.198 1075.53 153.436 1086.39 153.436V151.415ZM1060.6 142.183C1053.93 136.037 1050.62 128.557 1050.62 119.683H1048.6C1048.6 129.134 1052.16 137.149 1059.23 143.669L1060.6 142.183ZM1049.61 120.694H1072.65V118.673H1049.61V120.694ZM1071.64 119.683C1071.64 123.605 1073.1 126.967 1075.99 129.713L1077.39 128.248C1074.89 125.874 1073.66 123.037 1073.66 119.683H1071.64ZM1075.99 129.713C1078.89 132.461 1082.44 133.831 1086.59 133.831V131.81C1082.93 131.81 1079.88 130.619 1077.39 128.248L1075.99 129.713ZM1086.59 133.831C1090.43 133.831 1093.76 132.76 1096.52 130.582L1095.27 128.996C1092.9 130.86 1090.03 131.81 1086.59 131.81V133.831ZM1096.54 130.562C1099.31 128.231 1100.74 125.33 1100.74 121.906H1098.72C1098.72 124.681 1097.59 127.034 1095.24 129.016L1096.54 130.562ZM1100.74 121.906C1100.74 118.303 1099.03 115.203 1095.82 112.628C1092.63 110.078 1087.93 108.011 1081.8 106.378L1081.28 108.331C1087.28 109.931 1091.68 111.906 1094.55 114.207C1097.4 116.483 1098.72 119.042 1098.72 121.906H1100.74ZM1081.79 106.374C1071.72 103.841 1064.29 99.9862 1059.38 94.8806C1054.49 89.7985 1052.03 83.4049 1052.03 75.6225H1050.01C1050.01 83.8744 1052.64 90.7866 1057.92 96.2817C1063.19 101.753 1071.01 105.747 1081.29 108.334L1081.79 106.374ZM1052.03 75.6225C1052.03 66.3249 1055.29 59.0794 1061.77 53.7674L1060.49 52.2045C1053.49 57.9412 1050.01 65.7869 1050.01 75.6225H1052.03ZM1061.78 53.7597C1068.31 48.2717 1076.36 45.5077 1085.99 45.5077V43.4866C1075.94 43.4866 1067.42 46.3819 1060.48 52.2121L1061.78 53.7597ZM1085.99 45.5077C1095.87 45.5077 1104.05 48.4666 1110.58 54.3434L1111.93 52.8411C1104.98 46.5911 1096.31 43.4866 1085.99 43.4866V45.5077ZM1110.58 54.3434C1117.11 60.2227 1120.35 67.3641 1120.35 75.8246H1122.37C1122.37 66.7688 1118.87 59.0885 1111.93 52.8411L1110.58 54.3434ZM1121.36 74.8141H1098.32V76.8352H1121.36V74.8141ZM1099.33 75.8246C1099.33 72.303 1097.99 69.278 1095.37 66.8033L1093.98 68.2727C1096.22 70.3792 1097.31 72.8786 1097.31 75.8246H1099.33ZM1095.39 66.8234C1092.89 64.3193 1089.66 63.0915 1085.79 63.0915V65.1127C1089.19 65.1127 1091.89 66.1755 1093.96 68.2526L1095.39 66.8234ZM1085.79 63.0915C1082.32 63.0915 1079.32 64.1819 1076.83 66.376L1078.17 67.8916C1080.26 66.0435 1082.78 65.1127 1085.79 65.1127V63.0915ZM1076.86 66.3537C1074.35 68.4213 1073.05 71.0597 1073.05 74.2077H1075.07C1075.07 71.6967 1076.07 69.6191 1078.14 67.9139L1076.86 66.3537ZM1073.05 74.2077C1073.05 77.8216 1074.81 80.9079 1078.09 83.446C1081.35 85.9599 1086.15 87.9736 1092.41 89.5381L1092.9 87.5774C1086.76 86.0429 1082.27 84.1153 1079.33 81.8459C1076.42 79.6007 1075.07 77.0615 1075.07 74.2077H1073.05ZM1092.41 89.537C1102.34 92.0695 1109.67 95.891 1114.51 100.93C1119.34 105.946 1121.76 112.239 1121.76 119.885H1123.78C1123.78 111.767 1121.19 104.956 1115.97 99.5294C1110.78 94.126 1103.05 90.1662 1092.91 87.5785L1092.41 89.537ZM1121.76 119.885C1121.76 129.588 1118.37 137.244 1111.61 142.963L1112.92 144.506C1120.17 138.367 1123.78 130.124 1123.78 119.885H1121.76ZM1111.61 142.962C1104.95 148.579 1096.57 151.415 1086.39 151.415V153.436C1096.97 153.436 1105.83 150.478 1112.91 144.507L1111.61 142.962Z" fill="white"/>
<path d="M1133.67 22.1445C1131.81 22.1445 1129.97 22.511 1128.25 23.223C1126.53 23.935 1124.97 24.9786 1123.65 26.2943C1121 28.9513 1119.5 32.555 1119.5 36.3127C1119.5 40.0703 1121 43.674 1123.65 46.331C1124.97 47.6467 1126.53 48.6903 1128.25 49.4023C1129.97 50.1143 1131.81 50.4808 1133.67 50.4808C1137.43 50.4808 1141.03 48.9881 1143.69 46.331C1146.35 43.674 1147.84 40.0703 1147.84 36.3127C1147.84 34.4521 1147.47 32.6097 1146.76 30.8907C1146.05 29.1718 1145.01 27.6099 1143.69 26.2943C1142.38 24.9786 1140.81 23.935 1139.09 23.223C1137.38 22.511 1135.53 22.1445 1133.67 22.1445V22.1445ZM1133.67 47.6471C1127.42 47.6471 1122.34 42.5608 1122.34 36.3127C1122.34 30.0645 1127.42 24.9782 1133.67 24.9782C1139.92 24.9782 1145.01 30.0645 1145.01 36.3127C1145.01 42.5608 1139.92 47.6471 1133.67 47.6471ZM1134.03 38.112H1131.99V42.6883H1129.42V30.2345H1134.04C1135.5 30.2345 1136.63 30.5604 1137.44 31.2121C1138.24 31.878 1138.63 32.7706 1138.63 33.9891C1138.63 34.8392 1138.45 35.5476 1138.08 36.1143C1137.71 36.681 1137.16 37.1344 1136.41 37.4603L1139.1 42.5466V42.6883H1136.35L1134.03 38.112ZM1131.99 36.0435H1134.06C1134.69 36.0435 1135.19 35.8734 1135.54 35.5476C1135.9 35.2217 1136.07 34.7683 1136.07 34.1874C1136.07 33.6065 1135.91 33.1532 1135.57 32.8131C1135.25 32.4731 1134.74 32.3172 1134.04 32.3172H1131.99V36.0435Z" fill="white"/>
</svg>
